<?xml version="1.0" encoding="UTF-8"?>
<!DOCTYPE svg PUBLIC "-//W3C//DTD SVG 1.1//EN" "http://www.w3.org/Graphics/SVG/1.1/DTD/svg11.dtd">
<svg version="1.1" xmlns="http://www.w3.org/2000/svg" xmlns:xlink="http://www.w3.org/1999/xlink" x="0" y="0" width="194" height="150" viewBox="0, 0, 194, 150">
  <g id="Layer_1">
    <path d="M0,131.988 L3.588,131.988 L3.588,132.704 L0.771,132.704 L0.771,134.759 L3.506,134.759 L3.506,135.475 L0.771,135.475 L0.771,138.191 L3.588,138.191 L3.588,138.907 L0,138.907 L0,131.988 z M7.782,137.264 L5.809,131.988 L4.974,131.988 L7.782,139.32 L10.59,131.988 L9.755,131.988 L7.782,137.264 z M12.058,131.988 L12.058,138.907 L15.646,138.907 L15.646,138.191 L12.829,138.191 L12.829,135.475 L15.564,135.475 L15.564,134.759 L12.829,134.759 L12.829,132.704 L15.646,132.704 L15.646,131.988 L12.058,131.988 z M17.72,131.694 L17.72,138.907 L18.491,138.907 L18.491,133.576 L23.887,139.219 L23.887,131.988 L23.116,131.988 L23.116,137.347 L17.72,131.694 z M27.879,138.907 L27.879,132.704 L29.567,132.704 L29.567,131.988 L25.438,131.988 L25.438,132.704 L27.108,132.704 L27.108,138.907 L27.879,138.907 z M34.21,133.337 L34.825,132.942 C34.642,132.6 34.394,132.335 34.082,132.149 C33.77,131.962 33.421,131.868 33.036,131.868 C32.779,131.868 32.534,131.91 32.302,131.992 C32.069,132.075 31.863,132.193 31.682,132.346 C31.502,132.499 31.359,132.683 31.256,132.901 C31.151,133.118 31.099,133.361 31.099,133.631 C31.099,133.881 31.139,134.097 31.219,134.277 C31.298,134.458 31.407,134.615 31.544,134.75 C31.682,134.885 31.843,135.004 32.026,135.108 C32.21,135.212 32.403,135.31 32.604,135.401 L33.026,135.585 C33.185,135.659 33.342,135.734 33.495,135.81 C33.648,135.887 33.784,135.977 33.903,136.081 C34.022,136.184 34.118,136.307 34.192,136.448 C34.265,136.588 34.302,136.759 34.302,136.962 C34.302,137.157 34.262,137.338 34.183,137.503 C34.103,137.668 33.998,137.811 33.866,137.93 C33.735,138.049 33.583,138.143 33.412,138.21 C33.241,138.277 33.063,138.311 32.879,138.311 C32.696,138.311 32.525,138.277 32.366,138.21 C32.207,138.143 32.067,138.051 31.948,137.934 C31.829,137.818 31.729,137.682 31.65,137.526 C31.57,137.37 31.518,137.204 31.494,137.026 L30.741,137.237 C30.797,137.506 30.888,137.751 31.017,137.971 C31.145,138.191 31.303,138.379 31.489,138.536 C31.676,138.691 31.889,138.812 32.127,138.898 C32.366,138.983 32.623,139.027 32.898,139.027 C33.198,139.027 33.479,138.971 33.742,138.861 C34.005,138.751 34.236,138.601 34.435,138.412 C34.634,138.222 34.79,137.997 34.903,137.738 C35.016,137.477 35.073,137.194 35.073,136.888 C35.073,136.613 35.028,136.376 34.94,136.177 C34.851,135.978 34.73,135.804 34.577,135.654 C34.424,135.504 34.248,135.372 34.05,135.26 C33.851,135.146 33.638,135.041 33.412,134.943 L32.953,134.741 C32.837,134.685 32.715,134.628 32.586,134.566 C32.457,134.505 32.341,134.432 32.237,134.347 C32.133,134.261 32.046,134.162 31.976,134.048 C31.905,133.935 31.87,133.805 31.87,133.658 C31.87,133.499 31.901,133.354 31.962,133.222 C32.023,133.091 32.107,132.977 32.214,132.883 C32.322,132.788 32.444,132.714 32.581,132.663 C32.719,132.61 32.864,132.584 33.017,132.584 C33.311,132.584 33.548,132.65 33.728,132.782 C33.909,132.913 34.07,133.099 34.21,133.337 z" fill="#000000"/>
    <path d="M46.616,138.907 L46.203,138.907 L46.203,132.023 L46.616,132.023 L46.616,138.907 z" fill="#5C5D60"/>
    <path d="M57.776,138.907 L57.005,138.907 L57.005,131.988 L58.143,131.988 C58.443,131.988 58.741,132.006 59.038,132.043 C59.334,132.08 59.608,132.184 59.859,132.355 C60.116,132.533 60.31,132.762 60.442,133.043 C60.573,133.325 60.639,133.621 60.639,133.934 C60.639,134.215 60.582,134.489 60.469,134.755 C60.356,135.021 60.193,135.243 59.979,135.42 C59.746,135.616 59.486,135.741 59.198,135.796 C58.911,135.852 58.623,135.879 58.336,135.879 L57.776,135.879 L57.776,138.907 z M57.776,135.163 L58.29,135.163 C58.504,135.163 58.706,135.145 58.896,135.108 C59.085,135.072 59.252,135.005 59.396,134.911 C59.539,134.816 59.654,134.689 59.74,134.53 C59.825,134.371 59.868,134.166 59.868,133.915 C59.868,133.634 59.816,133.412 59.712,133.25 C59.608,133.088 59.471,132.966 59.299,132.887 C59.128,132.808 58.935,132.757 58.721,132.736 C58.507,132.714 58.287,132.704 58.06,132.704 L57.776,132.704 L57.776,135.163 z M63.089,136.108 L63.089,131.988 L62.318,131.988 L62.318,136.319 C62.318,136.515 62.326,136.703 62.341,136.884 C62.357,137.064 62.387,137.237 62.433,137.402 C62.479,137.568 62.546,137.725 62.635,137.874 C62.723,138.025 62.844,138.173 62.997,138.32 C63.23,138.553 63.504,138.729 63.818,138.848 C64.134,138.966 64.457,139.027 64.787,139.027 C65.135,139.027 65.474,138.959 65.801,138.825 C66.128,138.69 66.411,138.494 66.65,138.237 C66.784,138.096 66.893,137.953 66.975,137.806 C67.058,137.659 67.119,137.506 67.159,137.347 C67.198,137.188 67.225,137.025 67.237,136.857 C67.249,136.688 67.256,136.509 67.256,136.319 L67.256,131.988 L66.484,131.988 L66.484,136.108 C66.484,136.243 66.484,136.381 66.484,136.521 C66.484,136.662 66.474,136.801 66.452,136.939 C66.431,137.076 66.397,137.209 66.352,137.338 C66.306,137.467 66.237,137.585 66.145,137.696 C65.986,137.891 65.782,138.044 65.535,138.149 C65.287,138.257 65.038,138.311 64.787,138.311 C64.53,138.311 64.271,138.255 64.012,138.141 C63.751,138.028 63.545,137.864 63.392,137.651 C63.313,137.539 63.251,137.422 63.209,137.296 C63.166,137.171 63.135,137.041 63.116,136.907 C63.098,136.772 63.089,136.637 63.089,136.503 C63.089,136.369 63.089,136.236 63.089,136.108 z M70.109,138.191 L70.109,135.695 L70.779,135.695 C70.987,135.695 71.203,135.709 71.426,135.737 C71.649,135.765 71.851,135.821 72.032,135.906 C72.212,135.992 72.361,136.116 72.476,136.278 C72.593,136.441 72.651,136.656 72.651,136.925 C72.651,137.188 72.599,137.402 72.495,137.568 C72.391,137.732 72.255,137.861 72.086,137.953 C71.919,138.045 71.729,138.108 71.518,138.141 C71.307,138.174 71.094,138.191 70.88,138.191 L70.109,138.191 z M70.109,135.035 L70.109,132.704 L70.412,132.704 C70.651,132.704 70.868,132.714 71.064,132.736 C71.259,132.757 71.428,132.808 71.568,132.887 C71.709,132.966 71.819,133.083 71.898,133.236 C71.978,133.388 72.018,133.597 72.018,133.86 C72.018,134.129 71.975,134.342 71.889,134.498 C71.804,134.654 71.687,134.772 71.541,134.851 C71.394,134.931 71.223,134.981 71.027,135.002 C70.831,135.024 70.623,135.035 70.403,135.035 L70.109,135.035 z M69.339,131.988 L69.339,138.907 L70.944,138.907 C71.287,138.907 71.608,138.872 71.908,138.801 C72.207,138.732 72.47,138.618 72.697,138.462 C72.923,138.306 73.101,138.106 73.229,137.861 C73.358,137.616 73.422,137.323 73.422,136.98 C73.422,136.772 73.393,136.574 73.335,136.383 C73.276,136.194 73.191,136.02 73.078,135.86 C72.964,135.701 72.827,135.566 72.665,135.452 C72.503,135.339 72.318,135.258 72.11,135.209 C72.342,135.05 72.514,134.856 72.624,134.626 C72.734,134.397 72.788,134.141 72.788,133.86 C72.788,133.505 72.728,133.208 72.605,132.97 C72.483,132.731 72.316,132.539 72.105,132.391 C71.894,132.245 71.648,132.141 71.366,132.08 C71.085,132.018 70.788,131.988 70.476,131.988 L69.339,131.988 z M76.037,138.191 L76.037,131.988 L75.267,131.988 L75.267,138.907 L77.946,138.907 L77.946,138.191 L76.037,138.191 z M80.213,138.907 L80.213,131.988 L79.442,131.988 L79.442,138.907 L80.213,138.907 z M87.608,133.502 L87.608,132.548 C87.004,132.095 86.315,131.868 85.544,131.868 C85.048,131.868 84.582,131.964 84.144,132.154 C83.708,132.343 83.324,132.601 82.997,132.929 C82.671,133.256 82.412,133.639 82.223,134.075 C82.032,134.513 81.937,134.979 81.937,135.475 C81.937,135.965 82.034,136.425 82.226,136.857 C82.419,137.287 82.68,137.664 83.007,137.985 C83.334,138.306 83.717,138.56 84.154,138.747 C84.591,138.934 85.055,139.027 85.544,139.027 C85.911,139.027 86.272,138.966 86.628,138.848 C86.981,138.729 87.309,138.561 87.608,138.348 L87.608,137.393 C87.333,137.668 87.013,137.89 86.65,138.059 C86.286,138.226 85.909,138.311 85.517,138.311 C85.131,138.311 84.767,138.233 84.424,138.076 C84.082,137.921 83.784,137.711 83.53,137.448 C83.276,137.185 83.076,136.881 82.929,136.535 C82.782,136.189 82.709,135.827 82.709,135.448 C82.709,135.068 82.782,134.706 82.929,134.361 C83.076,134.015 83.275,133.71 83.525,133.447 C83.776,133.184 84.071,132.974 84.411,132.818 C84.75,132.663 85.113,132.584 85.498,132.584 C85.902,132.584 86.286,132.666 86.65,132.828 C87.013,132.99 87.333,133.214 87.608,133.502 z M90.416,138.907 L90.416,131.988 L89.646,131.988 L89.646,138.907 L90.416,138.907 z M94.372,138.907 L94.372,132.704 L96.061,132.704 L96.061,131.988 L91.931,131.988 L91.931,132.704 L93.602,132.704 L93.602,138.907 L94.372,138.907 z M96.942,131.988 L99.208,135.934 L99.208,138.907 L99.978,138.907 L99.978,135.934 L102.245,131.988 L101.355,131.988 L99.593,135.072 L97.831,131.988 L96.942,131.988 z" fill="#000000"/>
    <path d="M113.616,138.907 L113.203,138.907 L113.203,132.023 L113.616,132.023 L113.616,138.907 z" fill="#5C5D60"/>
    <path d="M124.956,138.907 L124.185,138.907 L124.185,131.988 L125.323,131.988 C125.623,131.988 125.921,132.006 126.218,132.043 C126.514,132.08 126.788,132.184 127.039,132.355 C127.296,132.533 127.49,132.762 127.622,133.043 C127.753,133.325 127.819,133.621 127.819,133.934 C127.819,134.215 127.762,134.489 127.65,134.755 C127.536,135.021 127.372,135.243 127.158,135.42 C126.925,135.616 126.665,135.741 126.378,135.796 C126.09,135.852 125.803,135.879 125.516,135.879 L124.956,135.879 L124.956,138.907 z M124.956,135.163 L125.47,135.163 C125.684,135.163 125.885,135.145 126.075,135.108 C126.265,135.072 126.432,135.005 126.576,134.911 C126.719,134.816 126.834,134.689 126.92,134.53 C127.005,134.371 127.048,134.166 127.048,133.915 C127.048,133.634 126.996,133.412 126.892,133.25 C126.788,133.088 126.65,132.966 126.479,132.887 C126.308,132.808 126.115,132.757 125.901,132.736 C125.687,132.714 125.467,132.704 125.241,132.704 L124.956,132.704 L124.956,135.163 z M130.287,135.19 L130.287,132.704 L130.516,132.704 C130.749,132.704 130.971,132.716 131.182,132.741 C131.393,132.765 131.579,132.818 131.742,132.901 C131.903,132.983 132.033,133.109 132.131,133.277 C132.23,133.446 132.279,133.67 132.279,133.952 C132.279,134.221 132.228,134.437 132.126,134.598 C132.025,134.762 131.893,134.886 131.728,134.974 C131.562,135.064 131.376,135.122 131.168,135.149 C130.96,135.177 130.745,135.19 130.526,135.19 L130.287,135.19 z M130.287,138.907 L130.287,135.87 L130.48,135.87 L132.572,138.907 L133.517,138.907 L131.314,135.805 C131.853,135.757 132.277,135.56 132.586,135.218 C132.894,134.876 133.049,134.435 133.049,133.897 C133.049,133.505 132.979,133.186 132.838,132.938 C132.698,132.69 132.51,132.495 132.274,132.355 C132.038,132.214 131.769,132.118 131.466,132.067 C131.163,132.014 130.846,131.988 130.516,131.988 L129.516,131.988 L129.516,138.907 L130.287,138.907 z M138.464,132.584 C138.861,132.584 139.233,132.66 139.579,132.809 C139.924,132.959 140.224,133.165 140.478,133.424 C140.731,133.684 140.932,133.988 141.079,134.337 C141.225,134.685 141.299,135.056 141.299,135.448 C141.299,135.839 141.225,136.208 141.079,136.553 C140.932,136.899 140.73,137.202 140.473,137.462 C140.216,137.722 139.914,137.929 139.569,138.081 C139.223,138.234 138.855,138.311 138.464,138.311 C138.072,138.311 137.704,138.234 137.358,138.081 C137.012,137.929 136.71,137.722 136.454,137.462 C136.197,137.202 135.995,136.899 135.848,136.553 C135.701,136.208 135.628,135.839 135.628,135.448 C135.628,135.056 135.701,134.685 135.848,134.337 C135.995,133.988 136.195,133.684 136.449,133.424 C136.704,133.165 137.003,132.959 137.348,132.809 C137.694,132.66 138.066,132.584 138.464,132.584 z M138.464,131.868 C137.968,131.868 137.502,131.962 137.064,132.149 C136.627,132.335 136.244,132.592 135.917,132.919 C135.59,133.247 135.331,133.628 135.141,134.062 C134.952,134.497 134.857,134.962 134.857,135.457 C134.857,135.953 134.952,136.417 135.141,136.852 C135.331,137.286 135.59,137.664 135.917,137.985 C136.244,138.306 136.627,138.56 137.064,138.747 C137.502,138.934 137.968,139.027 138.464,139.027 C138.959,139.027 139.426,138.934 139.863,138.747 C140.301,138.56 140.683,138.306 141.01,137.985 C141.337,137.664 141.596,137.286 141.786,136.852 C141.975,136.417 142.07,135.953 142.07,135.457 C142.07,134.962 141.975,134.497 141.786,134.062 C141.596,133.628 141.337,133.247 141.01,132.919 C140.683,132.592 140.301,132.335 139.863,132.149 C139.426,131.962 138.959,131.868 138.464,131.868 z M145.163,138.191 L144.602,138.191 L144.602,132.704 L145.163,132.704 C145.572,132.704 145.953,132.745 146.305,132.828 C146.656,132.91 146.991,133.092 147.31,133.374 C147.609,133.637 147.834,133.949 147.984,134.309 C148.134,134.671 148.209,135.05 148.209,135.448 C148.209,135.833 148.137,136.2 147.993,136.549 C147.85,136.898 147.634,137.206 147.347,137.475 C147.187,137.623 147.024,137.744 146.855,137.838 C146.687,137.933 146.513,138.007 146.332,138.059 C146.152,138.11 145.964,138.146 145.768,138.163 C145.572,138.182 145.37,138.191 145.163,138.191 z M143.832,131.988 L143.832,138.907 L145.116,138.907 C145.386,138.907 145.641,138.896 145.882,138.875 C146.124,138.854 146.356,138.811 146.58,138.747 C146.803,138.683 147.019,138.593 147.227,138.48 C147.435,138.367 147.643,138.219 147.852,138.035 C148.237,137.693 148.521,137.304 148.704,136.87 C148.888,136.435 148.979,135.965 148.979,135.457 C148.979,134.937 148.888,134.454 148.704,134.007 C148.521,133.56 148.231,133.165 147.833,132.823 C147.631,132.652 147.424,132.511 147.213,132.401 C147.002,132.29 146.786,132.205 146.566,132.144 C146.346,132.083 146.117,132.042 145.879,132.02 C145.639,131.998 145.392,131.988 145.135,131.988 L143.832,131.988 z M151.522,136.108 L151.522,131.988 L150.752,131.988 L150.752,136.319 C150.752,136.515 150.758,136.703 150.774,136.884 C150.789,137.064 150.82,137.237 150.866,137.402 C150.911,137.568 150.978,137.725 151.068,137.874 C151.157,138.025 151.277,138.173 151.43,138.32 C151.662,138.553 151.937,138.729 152.251,138.848 C152.567,138.966 152.889,139.027 153.22,139.027 C153.569,139.027 153.906,138.959 154.234,138.825 C154.561,138.69 154.844,138.494 155.082,138.237 C155.217,138.096 155.326,137.953 155.408,137.806 C155.491,137.659 155.552,137.506 155.591,137.347 C155.631,137.188 155.657,137.025 155.67,136.857 C155.682,136.688 155.688,136.509 155.688,136.319 L155.688,131.988 L154.917,131.988 L154.917,136.108 C154.917,136.243 154.917,136.381 154.917,136.521 C154.917,136.662 154.906,136.801 154.885,136.939 C154.863,137.076 154.831,137.209 154.784,137.338 C154.739,137.467 154.669,137.585 154.578,137.696 C154.419,137.891 154.215,138.044 153.967,138.149 C153.72,138.257 153.471,138.311 153.22,138.311 C152.962,138.311 152.704,138.255 152.444,138.141 C152.184,138.028 151.978,137.864 151.825,137.651 C151.745,137.539 151.684,137.422 151.641,137.296 C151.598,137.171 151.568,137.041 151.55,136.907 C151.531,136.772 151.522,136.637 151.522,136.503 C151.522,136.369 151.522,136.236 151.522,136.108 z M163.047,133.502 L163.047,132.548 C162.441,132.095 161.754,131.868 160.983,131.868 C160.487,131.868 160.021,131.964 159.583,132.154 C159.146,132.343 158.763,132.601 158.436,132.929 C158.109,133.256 157.85,133.639 157.661,134.075 C157.471,134.513 157.376,134.979 157.376,135.475 C157.376,135.965 157.473,136.425 157.665,136.857 C157.858,137.287 158.118,137.664 158.445,137.985 C158.773,138.306 159.155,138.56 159.593,138.747 C160.029,138.934 160.493,139.027 160.983,139.027 C161.35,139.027 161.711,138.966 162.066,138.848 C162.42,138.729 162.747,138.561 163.047,138.348 L163.047,137.393 C162.772,137.668 162.452,137.89 162.089,138.059 C161.725,138.226 161.346,138.311 160.955,138.311 C160.57,138.311 160.206,138.233 159.863,138.076 C159.52,137.921 159.223,137.711 158.968,137.448 C158.714,137.185 158.514,136.881 158.367,136.535 C158.22,136.189 158.147,135.827 158.147,135.448 C158.147,135.068 158.22,134.706 158.367,134.361 C158.514,134.015 158.714,133.71 158.964,133.447 C159.215,133.184 159.51,132.974 159.849,132.818 C160.189,132.663 160.551,132.584 160.937,132.584 C161.34,132.584 161.725,132.666 162.089,132.828 C162.452,132.99 162.772,133.214 163.047,133.502 z M166.902,138.907 L166.902,132.704 L168.59,132.704 L168.59,131.988 L164.461,131.988 L164.461,132.704 L166.131,132.704 L166.131,138.907 L166.902,138.907 z M170.883,138.907 L170.883,131.988 L170.113,131.988 L170.113,138.907 L170.883,138.907 z M176.262,132.584 C176.66,132.584 177.031,132.66 177.376,132.809 C177.723,132.959 178.022,133.165 178.276,133.424 C178.53,133.684 178.731,133.988 178.877,134.337 C179.024,134.685 179.097,135.056 179.097,135.448 C179.097,135.839 179.024,136.208 178.877,136.553 C178.731,136.899 178.528,137.202 178.271,137.462 C178.015,137.722 177.713,137.929 177.367,138.081 C177.022,138.234 176.653,138.311 176.262,138.311 C175.87,138.311 175.502,138.234 175.156,138.081 C174.81,137.929 174.509,137.722 174.252,137.462 C173.995,137.202 173.793,136.899 173.647,136.553 C173.499,136.208 173.426,135.839 173.426,135.448 C173.426,135.056 173.499,134.685 173.647,134.337 C173.793,133.988 173.993,133.684 174.248,133.424 C174.501,133.165 174.801,132.959 175.147,132.809 C175.492,132.66 175.864,132.584 176.262,132.584 z M176.262,131.868 C175.767,131.868 175.299,131.962 174.863,132.149 C174.425,132.335 174.042,132.592 173.715,132.919 C173.388,133.247 173.13,133.628 172.94,134.062 C172.751,134.497 172.656,134.962 172.656,135.457 C172.656,135.953 172.751,136.417 172.94,136.852 C173.13,137.286 173.388,137.664 173.715,137.985 C174.042,138.306 174.425,138.56 174.863,138.747 C175.299,138.934 175.767,139.027 176.262,139.027 C176.758,139.027 177.224,138.934 177.661,138.747 C178.099,138.56 178.48,138.306 178.808,137.985 C179.135,137.664 179.394,137.286 179.584,136.852 C179.773,136.417 179.868,135.953 179.868,135.457 C179.868,134.962 179.773,134.497 179.584,134.062 C179.394,133.628 179.135,133.247 178.808,132.919 C178.48,132.592 178.099,132.335 177.661,132.149 C177.224,131.962 176.758,131.868 176.262,131.868 z M181.676,131.694 L181.676,138.907 L182.446,138.907 L182.446,133.576 L187.843,139.219 L187.843,131.988 L187.072,131.988 L187.072,137.347 L181.676,131.694 z M193.138,133.337 L193.752,132.942 C193.569,132.6 193.322,132.335 193.009,132.149 C192.698,131.962 192.348,131.868 191.963,131.868 C191.706,131.868 191.461,131.91 191.229,131.992 C190.997,132.075 190.79,132.193 190.609,132.346 C190.429,132.499 190.287,132.683 190.183,132.901 C190.079,133.118 190.027,133.361 190.027,133.631 C190.027,133.881 190.067,134.097 190.146,134.277 C190.226,134.458 190.334,134.615 190.472,134.75 C190.609,134.885 190.77,135.004 190.953,135.108 C191.137,135.212 191.33,135.31 191.531,135.401 L191.953,135.585 C192.113,135.659 192.269,135.734 192.422,135.81 C192.575,135.887 192.711,135.977 192.83,136.081 C192.95,136.184 193.046,136.307 193.12,136.448 C193.193,136.588 193.229,136.759 193.229,136.962 C193.229,137.157 193.19,137.338 193.111,137.503 C193.03,137.668 192.925,137.811 192.793,137.93 C192.662,138.049 192.511,138.143 192.34,138.21 C192.168,138.277 191.991,138.311 191.807,138.311 C191.624,138.311 191.452,138.277 191.293,138.21 C191.133,138.143 190.995,138.051 190.876,137.934 C190.756,137.818 190.657,137.682 190.577,137.526 C190.498,137.37 190.445,137.204 190.422,137.026 L189.669,137.237 C189.724,137.506 189.816,137.751 189.945,137.971 C190.073,138.191 190.23,138.379 190.417,138.536 C190.604,138.691 190.816,138.812 191.055,138.898 C191.293,138.983 191.55,139.027 191.825,139.027 C192.125,139.027 192.406,138.971 192.67,138.861 C192.933,138.751 193.163,138.601 193.362,138.412 C193.561,138.222 193.717,137.997 193.831,137.738 C193.943,137.477 194,137.194 194,136.888 C194,136.613 193.956,136.376 193.867,136.177 C193.779,135.978 193.658,135.804 193.504,135.654 C193.352,135.504 193.176,135.372 192.977,135.26 C192.778,135.146 192.566,135.041 192.34,134.943 L191.88,134.741 C191.764,134.685 191.642,134.628 191.514,134.566 C191.385,134.505 191.269,134.432 191.165,134.347 C191.06,134.261 190.973,134.162 190.904,134.048 C190.833,133.935 190.798,133.805 190.798,133.658 C190.798,133.499 190.828,133.354 190.889,133.222 C190.95,133.091 191.035,132.977 191.142,132.883 C191.249,132.788 191.371,132.714 191.509,132.663 C191.646,132.61 191.792,132.584 191.945,132.584 C192.239,132.584 192.476,132.65 192.656,132.782 C192.836,132.913 192.997,133.099 193.138,133.337 z" fill="#000000"/>
    <path d="M47.439,0 C49.144,0 50.422,0.645 51.276,1.935 C52.234,3.225 53.566,6.556 55.27,11.928 L80.954,91.25 L96.457,43.668 L86.239,12.527 C83.991,5.247 79.012,1.606 71.303,1.606 L71.303,0 L122.563,0 L122.563,1.606 C115.552,1.606 112.048,3.408 112.048,7.009 C112.048,8.192 112.395,9.832 113.087,11.928 L138.81,91.371 L164.699,12.117 C165.051,10.092 165.226,8.505 165.226,7.354 C165.226,3.522 161.463,1.606 153.939,1.606 L153.939,0 L180.514,0 L180.514,1.606 C172.911,1.606 167.933,5.247 165.578,12.527 L140.041,92.766 L134.821,109.209 L124.784,109.209 C120.234,109.209 116.915,106.025 114.827,99.655 L96.981,45.516 L82.16,92.744 L77.004,109.209 L66.968,109.209 C63.544,109.206 61.418,107.455 59.452,104.857 C60.393,105.592 59.961,105.32 60.704,105.738 C61.317,106.043 61.978,106.222 62.682,106.271 C63.387,106.321 64.107,106.223 64.842,105.976 C65.565,105.734 66.196,105.38 66.735,104.913 C67.273,104.448 67.696,103.907 68.001,103.294 C68.306,102.682 68.483,102.02 68.531,101.307 C68.58,100.597 68.481,99.874 68.234,99.139 C67.988,98.404 67.632,97.766 67.165,97.227 C66.698,96.689 66.158,96.267 65.545,95.961 C64.932,95.655 64.269,95.479 63.558,95.43 C62.848,95.383 62.13,95.48 61.407,95.722 C60.673,95.968 60.038,96.323 59.506,96.788 C58.973,97.253 58.554,97.792 58.248,98.405 C57.943,99.018 57.767,99.68 57.719,100.392 C57.76,101.571 57.674,101.118 57.828,101.769 C57.255,100.436 57.532,101.14 57.011,99.655 L55.836,96.076 L65.482,92.846 L65.309,92.331 L55.667,95.56 L54.342,91.522 L54.556,91.956 C54.757,92.332 54.987,92.694 55.247,93.043 C55.507,93.392 55.825,93.743 56.202,94.093 L69.122,89.766 L68.949,89.252 L62.609,91.375 L62.596,91.338 C62.895,91.048 63.16,90.713 63.395,90.336 C63.629,89.956 63.809,89.535 63.933,89.072 C64.056,88.608 64.115,88.112 64.108,87.581 C64.102,87.053 64,86.495 63.803,85.906 C63.536,85.109 63.156,84.443 62.663,83.907 C62.169,83.37 61.613,82.96 60.994,82.677 C60.374,82.395 59.715,82.236 59.016,82.205 C58.318,82.173 57.638,82.268 56.976,82.489 C56.314,82.711 55.713,83.042 55.172,83.482 C54.631,83.923 54.193,84.443 53.857,85.047 C53.521,85.65 53.311,86.316 53.228,87.046 C53.187,87.832 53.177,87.416 53.283,88.293 L50.535,79.919 L50.669,80.167 C50.892,80.528 51.153,80.848 51.452,81.13 C51.751,81.413 52.083,81.641 52.449,81.819 C52.814,81.995 53.206,82.096 53.623,82.121 L53.635,82.157 L51.668,82.815 L51.841,83.33 L61.581,80.068 L61.409,79.554 L55.877,81.407 C54.615,81.829 53.521,81.808 52.595,81.341 C51.669,80.874 50.994,80.01 50.572,78.748 C50.408,78.258 50.314,77.754 50.291,77.237 C50.267,76.721 50.364,76.215 50.579,75.72 C50.787,75.242 51.134,74.802 51.62,74.401 C52.105,73.999 52.772,73.657 53.616,73.375 L58.762,71.651 L58.59,71.136 L53.444,72.859 C51.668,73.456 50.539,74.357 50.058,75.568 C49.904,75.959 49.818,76.354 49.8,76.748 C49.795,77.47 49.78,77.122 49.837,77.791 L47.691,71.251 L56.887,68.171 L57.724,70.672 L58.201,70.512 L57.364,68.012 L61.223,66.72 L61.052,66.205 L57.192,67.499 L56.472,65.347 L55.994,65.507 L56.714,67.658 L47.522,70.737 L46.045,66.234 L46.138,66.366 C46.402,66.664 46.698,66.899 47.028,67.069 C47.357,67.237 47.715,67.338 48.101,67.373 C48.487,67.407 48.87,67.361 49.25,67.233 L49.416,67.179 C49.922,66.981 50.306,66.736 50.57,66.445 C50.832,66.152 51.018,65.84 51.127,65.512 C51.234,65.183 51.285,64.835 51.278,64.47 C51.271,64.104 51.258,63.748 51.236,63.4 C51.203,62.649 51.264,62.049 51.421,61.6 C51.578,61.154 51.946,60.819 52.526,60.597 C53.09,60.409 53.629,60.422 54.144,60.638 C54.659,60.854 55.038,61.323 55.28,62.045 C55.37,62.316 55.408,62.588 55.392,62.867 C55.375,63.145 55.298,63.413 55.16,63.671 C55.021,63.928 54.818,64.166 54.55,64.385 C54.283,64.604 53.948,64.782 53.544,64.917 L53.716,65.431 C54.23,65.259 54.649,65.043 54.971,64.787 C55.294,64.527 55.533,64.244 55.687,63.932 C55.842,63.622 55.922,63.293 55.928,62.943 C55.934,62.593 55.877,62.24 55.758,61.886 C55.614,61.457 55.423,61.099 55.183,60.81 C54.943,60.523 54.671,60.308 54.364,60.166 C54.058,60.023 53.731,59.945 53.386,59.931 C53.041,59.917 52.697,59.969 52.353,60.083 C51.937,60.223 51.61,60.406 51.374,60.635 C51.137,60.865 50.965,61.127 50.86,61.421 C50.754,61.716 50.694,62.045 50.681,62.41 C50.667,62.777 50.679,63.159 50.716,63.554 C50.77,64.408 50.693,65.081 50.483,65.574 C50.273,66.067 49.835,66.438 49.17,66.688 L49.096,66.713 C48.79,66.816 48.48,66.859 48.168,66.839 C47.855,66.822 47.557,66.748 47.276,66.618 C46.994,66.488 46.743,66.298 46.524,66.052 C46.305,65.804 46.136,65.503 46.017,65.148 C45.779,64.437 45.795,63.774 46.066,63.16 C46.337,62.543 46.865,62.105 47.649,61.842 L47.477,61.328 L47.293,61.39 C46.876,61.528 46.523,61.739 46.236,62.019 C45.948,62.3 45.732,62.617 45.585,62.972 C45.439,63.329 45.361,63.709 45.353,64.114 L45.355,64.131 L28.422,12.527 C26.174,5.247 21.195,1.606 13.486,1.606 L13.486,0 L47.439,0 z M69.169,91.039 L67.497,91.599 L67.669,92.113 L69.341,91.554 L69.169,91.039 z M63.535,95.969 C62.893,95.925 62.241,96.015 61.58,96.237 C60.918,96.458 60.344,96.779 59.859,97.202 C59.373,97.623 58.992,98.112 58.715,98.668 C58.438,99.225 58.276,99.82 58.23,100.455 C58.184,101.09 58.271,101.739 58.493,102.401 C58.715,103.062 59.035,103.633 59.455,104.112 C59.874,104.592 60.362,104.97 60.918,105.246 C61.474,105.524 62.073,105.684 62.714,105.728 C63.356,105.773 64.008,105.684 64.67,105.463 C65.332,105.242 65.905,104.919 66.391,104.497 C66.876,104.076 67.258,103.587 67.534,103.031 C67.811,102.475 67.973,101.88 68.02,101.245 C68.065,100.61 67.978,99.96 67.756,99.298 C67.534,98.636 67.214,98.067 66.795,97.586 C66.375,97.107 65.887,96.73 65.331,96.452 C64.775,96.175 64.176,96.013 63.535,95.969 z M59.155,82.741 C58.503,82.687 57.834,82.774 57.148,83.004 C56.781,83.127 56.386,83.324 55.966,83.594 C55.546,83.864 55.16,84.207 54.809,84.626 C54.458,85.042 54.178,85.54 53.969,86.113 C53.759,86.687 53.682,87.344 53.739,88.081 C53.794,88.819 54.011,89.639 54.389,90.541 C54.766,91.443 55.374,92.435 56.213,93.516 L60.239,92.23 C60.908,92.033 61.489,91.723 61.98,91.299 C62.472,90.876 62.853,90.385 63.121,89.824 C63.39,89.263 63.545,88.659 63.588,88.012 C63.63,87.365 63.542,86.716 63.325,86.067 C63.115,85.441 62.803,84.885 62.388,84.397 C61.972,83.909 61.492,83.525 60.948,83.244 C60.405,82.963 59.807,82.795 59.155,82.741 z" fill="#000000"/>
  </g>
</svg>