<?xml version="1.0" standalone="no"?>
<!DOCTYPE svg PUBLIC "-//W3C//DTD SVG 20010904//EN"
 "http://www.w3.org/TR/2001/REC-SVG-20010904/DTD/svg10.dtd">
<svg version="1.0" xmlns="http://www.w3.org/2000/svg"
 width="50.000000pt" height="50.000000pt" viewBox="0 0 50.000000 50.000000"
 preserveAspectRatio="xMidYMid meet">

<g transform="translate(0.000000,50.000000) scale(0.100000,-0.100000)"
fill="#000000" stroke="none">
<path d="M130 447 c-51 -27 -90 -90 -90 -147 0 -114 120 -197 229 -159 32 11
34 10 92 -47 l59 -58 22 22 22 22 -57 58 -58 58 16 37 c21 51 19 97 -8 147
-27 51 -90 90 -147 90 -20 0 -56 -10 -80 -23z m159 -45 c58 -43 64 -140 12
-193 -76 -75 -204 -30 -217 77 -14 110 115 183 205 116z"/>
</g>
</svg>
